<?xml version="1.0" encoding="iso-8859-1"?>
<!-- Generator: Adobe Illustrator 19.0.0, SVG Export Plug-In . SVG Version: 6.00 Build 0)  -->
<svg version="1.1" id="Capa_1" xmlns="http://www.w3.org/2000/svg" xmlns:xlink="http://www.w3.org/1999/xlink" x="0px" y="0px"
	 viewBox="0 0 512.031 512.031" style="enable-background:new 0 0 512.031 512.031;" xml:space="preserve" fill="#ffffff">
<g>
	<g>
		<g>
			<path d="M511.02,208.88C499.954,90.455,400.524-0.059,281.583,0.016C170.636-0.528,75.287,78.603,55.373,187.75
				c-2.209,0.49-4.328,1.322-6.281,2.466L22.17,206.395c-9.176,5.408-15.904,14.157-18.773,24.414
				c-9.993,36.207-2.722,98.466,88.303,189.491c72.243,72.243,126.37,91.716,163.729,91.716c8.7,0.04,17.365-1.094,25.762-3.371
				c10.26-2.865,19.01-9.594,24.414-18.773l16.213-26.957c1.132-1.955,1.952-4.073,2.432-6.281
				C441.146,434.674,522.086,327.305,511.02,208.88z M307.141,454.126l-16.171,26.957c-3.159,5.403-8.283,9.377-14.302,11.093
				c-45.005,12.331-106.411-17.468-172.911-83.968S7.45,280.336,19.798,235.331c1.714-6.02,5.688-11.145,11.093-14.302
				l26.982-16.213c2.249-1.35,5.163-0.692,6.613,1.493l43.017,64.503c1.418,2.138,0.954,5.007-1.067,6.588l-24.141,18.773
				c-8.597,6.595-11.047,18.502-5.751,27.955l1.903,3.49c12.122,22.245,27.855,42.321,46.558,59.409
				c17.09,18.713,37.176,34.45,59.435,46.566l3.465,1.894c9.45,5.315,21.371,2.862,27.955-5.751l18.773-24.132
				c1.587-2.022,4.459-2.489,6.605-1.075l64.461,42.982C307.87,448.977,308.505,451.891,307.141,454.126z M321.425,439.799
				c-1.628-2.572-3.772-4.778-6.298-6.477l-64.478-42.991c-9.592-6.327-22.434-4.237-29.525,4.804l-18.773,24.132
				c-1.448,1.915-4.082,2.478-6.187,1.323l-3.593-1.971c-20.811-11.362-39.583-26.113-55.543-43.648
				c-17.53-15.953-32.278-34.716-43.639-55.518l-1.98-3.618c-1.158-2.102-0.594-4.735,1.323-6.178l24.132-18.773
				c9.058-7.083,11.146-19.94,4.796-29.525l-42.974-64.486c-1.7-2.528-3.909-4.673-6.485-6.298
				C92.695,82.437,192.126,7.668,301.702,17.995c109.576,10.328,193.286,102.359,193.214,212.421
				C495.425,333.016,422.332,421.23,321.425,439.799z"/>
			<path d="M281.583,42.683c-75.429,0.128-143.496,45.274-172.954,114.714c-0.883,2.085-0.9,4.436-0.049,6.534
				s2.502,3.772,4.588,4.653c1.049,0.45,2.178,0.682,3.319,0.683c3.427,0.001,6.523-2.049,7.859-5.205
				c26.678-63.217,88.62-104.31,157.235-104.311c4.713,0,8.533-3.82,8.533-8.533S286.296,42.683,281.583,42.683z"/>
			<path d="M347.938,387.651c-2.808,1.189-4.768,3.786-5.142,6.812s0.894,6.022,3.328,7.859c2.434,1.837,5.662,2.236,8.47,1.047
				c69.529-29.351,114.722-97.484,114.722-172.954c0-4.713-3.82-8.533-8.533-8.533s-8.533,3.82-8.533,8.533
				C452.13,298.996,411.076,360.879,347.938,387.651z"/>
			<path d="M255.983,153.616h-51.2c-9.426,0-17.067,7.641-17.067,17.067v17.067c0,4.713,3.82,8.533,8.533,8.533
				s8.533-3.82,8.533-8.533v-17.067h51.2v19.046c-0.001,2.109-0.782,4.142-2.193,5.709l-59.597,66.227
				c-4.508,5.009-5.647,12.202-2.906,18.359c2.741,6.157,8.848,10.124,15.587,10.126h57.643c4.713,0,8.533-3.82,8.533-8.533
				s-3.821-8.533-8.533-8.533h-57.643l59.597-66.219c4.243-4.697,6.588-10.805,6.579-17.135v-19.046
				c0-4.526-1.798-8.867-4.999-12.068C264.851,155.414,260.51,153.616,255.983,153.616z"/>
			<path d="M349.85,281.616c0,4.713,3.82,8.533,8.533,8.533s8.533-3.82,8.533-8.533v-25.6h8.533c4.713,0,8.533-3.82,8.533-8.533
				s-3.82-8.533-8.533-8.533h-8.533v-17.067c0-4.713-3.82-8.533-8.533-8.533s-8.533,3.82-8.533,8.533v17.067h-37.393l36.54-72.986
				c2.107-4.218,0.395-9.345-3.823-11.452s-9.345-0.395-11.452,3.823l-36.489,72.986c-2.64,5.284-2.361,11.557,0.739,16.585
				s8.578,8.096,14.485,8.111h37.393V281.616z"/>
		</g>
	</g>
</g>
<g>
</g>
<g>
</g>
<g>
</g>
<g>
</g>
<g>
</g>
<g>
</g>
<g>
</g>
<g>
</g>
<g>
</g>
<g>
</g>
<g>
</g>
<g>
</g>
<g>
</g>
<g>
</g>
<g>
</g>
</svg>
