<?xml version="1.0" encoding="utf-8"?>
<!-- Generator: Adobe Illustrator 16.0.0, SVG Export Plug-In . SVG Version: 6.00 Build 0)  -->
<!DOCTYPE svg PUBLIC "-//W3C//DTD SVG 1.1//EN" "http://www.w3.org/Graphics/SVG/1.1/DTD/svg11.dtd">
<svg version="1.1" id="Capa_1" xmlns="http://www.w3.org/2000/svg" xmlns:xlink="http://www.w3.org/1999/xlink" x="0px" y="0px"
	 width="595.281px" height="841.891px" viewBox="0 0 595.281 841.891" enable-background="new 0 0 595.281 841.891"
	 xml:space="preserve" fill="#ffffff">
<g>
	<path d="M195.297,530.787c24.516,34.565,48.992,65.48,65.214,85.393c2.361,2.897,4.574,5.585,6.716,8.175h-48.951
		c-5.48,0-9.921,4.441-9.921,9.921s4.441,9.921,9.921,9.921h158.741c5.479,0,9.92-4.441,9.92-9.921s-4.441-9.921-9.92-9.921h-48.953
		c2.143-2.59,4.355-5.278,6.729-8.175c16.211-19.843,40.678-50.827,65.203-85.393c24.332-33.607,46.234-68.908,65.539-105.633
		c20.26-39.785,30.539-72.813,30.539-98.172c0.068-52.692-20.842-103.245-58.109-140.497c-2.49-2.581-6.178-3.618-9.646-2.713
		c-3.471,0.906-6.182,3.613-7.092,7.081s0.121,7.157,2.699,9.65c33.545,33.535,52.365,79.043,52.305,126.478
		c0,22.204-9.543,52.206-28.373,89.163c-18.869,35.874-40.275,70.356-64.053,103.184c-24.188,34.119-48.367,64.687-64.391,84.331
		c-5.326,6.528-10.119,12.302-14.207,17.184c-1.908,2.179-4.664,3.428-7.56,3.428c-2.896,0-5.651-1.25-7.56-3.428
		c-4.088-4.881-8.879-10.655-14.208-17.184c-16.023-19.634-40.202-50.203-64.39-84.331c-23.777-32.827-45.183-67.31-64.052-103.184
		c-18.85-36.957-28.375-66.959-28.375-89.163c-0.006-71.863,42.971-136.761,109.136-164.804c44.458-18.643,94.541-18.643,138.998,0
		c3.266,1.384,7.02,0.922,9.852-1.214c2.83-2.135,4.307-5.618,3.873-9.138s-2.711-6.54-5.977-7.923
		c-101.032-42.614-217.482,4.723-260.127,105.741c-10.342,24.47-15.646,50.772-15.596,77.337c0,25.358,10.279,58.388,30.538,98.222
		C149.063,461.912,170.966,497.196,195.297,530.787z"/>
	<path d="M297.645,237.422c5.48,0,9.921-4.441,9.921-9.921c0-5.48-4.441-9.921-9.921-9.921
		c-47.332-0.002-88.074,33.435-97.309,79.856c-9.235,46.423,15.61,92.904,59.339,111.019s94.165,2.814,120.461-36.54
		c26.297-39.355,21.131-91.807-12.338-125.275c-2.492-2.579-6.18-3.614-9.648-2.706s-6.178,3.617-7.086,7.085
		c-0.908,3.47,0.127,7.158,2.705,9.649c26.777,26.774,30.91,68.734,9.875,100.219c-21.037,31.485-61.385,43.726-96.368,29.236
		c-34.983-14.489-54.86-51.673-47.475-88.813C227.187,264.172,259.779,237.423,297.645,237.422z"/>
	<path d="M591.546,669.706L530.529,560.57c-5.516-9.696-15.84-15.656-26.996-15.586h-70.709c-5.479,0-9.92,4.441-9.92,9.921
		s4.441,9.921,9.92,9.921h70.709c3.973-0.077,7.678,1.994,9.693,5.417l60.998,109.136c1.66,2.839,1.625,6.36-0.09,9.167
		c-2.027,3.349-5.691,5.354-9.604,5.259H30.761c-3.909,0.093-7.569-1.914-9.595-5.259c-1.716-2.807-1.75-6.328-0.089-9.167
		l60.997-109.136c2.013-3.422,5.715-5.493,9.683-5.417h70.71c5.479,0,9.921-4.441,9.921-9.921s-4.441-9.921-9.921-9.921H91.757
		c-11.162-0.073-21.493,5.887-27.016,15.586L3.734,669.706c-5.086,8.985-4.969,20.007,0.308,28.882
		c5.56,9.45,15.755,15.197,26.718,15.062h533.77c10.959,0.132,21.15-5.613,26.709-15.062
		C596.517,689.712,596.634,678.691,591.546,669.706z"/>
</g>
</svg>
