<?xml version="1.0" encoding="utf-8"?>
<!-- Generator: Adobe Illustrator 16.0.0, SVG Export Plug-In . SVG Version: 6.00 Build 0)  -->
<!DOCTYPE svg PUBLIC "-//W3C//DTD SVG 1.1//EN" "http://www.w3.org/Graphics/SVG/1.1/DTD/svg11.dtd">
<svg version="1.1" id="Слой_7" xmlns="http://www.w3.org/2000/svg" xmlns:xlink="http://www.w3.org/1999/xlink" x="0px" y="0px"
	 width="595.275px" height="595.276px" viewBox="-27.351 13.879 595.275 595.276"
	 enable-background="new -27.351 13.879 595.275 595.276" xml:space="preserve">
<g>
	<path fill="#54A0FF" d="M192.708,424.125c-28.228,0-51.184,22.947-51.184,51.176c0,28.228,22.956,51.18,51.184,51.18
		c28.214,0,51.176-22.952,51.176-51.18C243.884,447.072,220.922,424.125,192.708,424.125z"/>
	<path fill="#B3D7FF" d="M192.708,510.316c-19.31,0-35.024-15.698-35.024-35.016c0-19.312,15.714-35.012,35.024-35.012
		c19.305,0,35.012,15.7,35.012,35.012C227.719,494.618,212.012,510.316,192.708,510.316z"/>
	<path fill="#54A0FF" d="M477.166,501.698h-9.157v-9.148c0-9.224-7.494-16.706-16.689-16.706h-0.543V354.615
		c0-161.308-131.246-292.547-292.553-292.547h-14.566c-67.722,0-122.819,55.121-122.819,122.864
		c0,32.804,12.778,63.645,35.975,86.842l16.353,16.349c-16.667,23.725-26.466,52.605-26.466,83.739v146.535
		c0,13.968,11.361,25.331,25.323,25.331h69.21c14.339,10.813,32.169,17.238,51.476,17.238c47.229,0,85.661-38.437,85.661-85.665
		c0-19.31-6.421-37.137-17.236-51.476V251.173c0-13.957-11.361-25.316-25.331-25.316h-43.094c-31.133,0-60.015,9.799-83.737,26.465
		l-16.349-16.359c-13.634-13.623-21.135-31.764-21.135-51.075c0-39.798,32.373-72.171,72.17-72.171h14.566
		c133.39,0,241.902,108.516,241.902,241.898v121.229h-0.523c-9.23,0-16.709,7.482-16.709,16.706v10.488
		c-10.018,3.373-17.25,12.85-17.25,23.98v25.866c0,4.467,3.619,8.081,8.082,8.081h137.93c4.465,0,8.081-3.614,8.081-8.081v-8.615
		C519.735,520.789,500.646,501.698,477.166,501.698z M62.861,518.396v-9.157h51.209c2.847,6.575,6.499,12.719,10.83,18.322H72.021
		C66.972,527.561,62.861,523.456,62.861,518.396z M192.708,544.802c-38.323,0-69.502-31.18-69.502-69.501
		c0-38.322,31.179-69.498,69.502-69.498c38.322,0,69.497,31.176,69.497,69.498C262.204,513.622,231.03,544.802,192.708,544.802z
		 M244.971,251.173v156.321c-14.482-11.185-32.603-17.854-52.263-17.854c-47.235,0-85.666,38.432-85.666,85.661
		c0,6.095,0.649,12.042,1.869,17.778H62.861v-18.321h9.16c13.962,0,25.324-11.363,25.324-25.321v-77.575
		c0-14.32,3.217-28.225,9.565-41.336c9.354-19.315,25.141-35.115,44.46-44.462c8.721-4.225,17.912-7.08,27.313-8.514
		c12.807-1.934,22.106-12.487,22.106-25.094V242.02h35.012C240.854,242.02,244.971,246.126,244.971,251.173z M143.656,96.552
		c-48.708,0-88.334,39.627-88.334,88.335c0,23.625,9.187,45.82,25.87,62.503l15.004,15.01c-4.584,4.043-8.907,8.363-12.951,12.95
		l-15.007-15.005c-20.142-20.139-31.237-46.921-31.237-75.413c0-58.834,47.846-106.7,106.654-106.7h14.566
		c68.92,0,132.03,25.361,180.486,67.235l-12.995,12.989c-45.107-38.573-103.618-61.904-167.491-61.904H143.656z M337.681,169.352
		l12.948-12.947c4.874,4.743,9.595,9.662,14.104,14.749l-12.959,12.97C347.263,179.016,342.563,174.084,337.681,169.352z
		 M362.134,196.618c0.011-0.025,0.034-0.045,0.061-0.068l12.988-12.972c37.184,47.085,59.43,106.506,59.43,171.037v121.229h-18.326
		V354.615C416.287,295.145,396.048,240.311,362.134,196.618z M399.601,492.007h51.718c0.289,0,0.529,0.234,0.529,0.543v9.148
		h-52.792v-9.148C399.056,492.241,399.288,492.007,399.601,492.007z"/>
	<path fill="#B3D7FF" d="M184.625,242.279v10.176c0,4.544-3.515,8.387-8.369,9.114c-11.003,1.675-21.748,5.021-31.929,9.948
		c-22.578,10.925-41.035,29.388-51.962,51.967c-7.422,15.324-11.185,31.605-11.185,48.378v77.575c0,5.052-4.107,9.157-9.16,9.157
		h-9.16v-86.732C62.861,302.973,116.78,246.463,184.625,242.279z"/>
	<path fill="#B3D7FF" d="M503.571,544.802H381.806v-17.783c0-5.051,4.105-9.157,9.168-9.157h86.191
		c14.559,0,26.405,11.843,26.405,26.408V544.802z"/>
</g>
</svg>
