<?xml version="1.0" encoding="utf-8"?>
<!-- Generator: Adobe Illustrator 16.0.0, SVG Export Plug-In . SVG Version: 6.00 Build 0)  -->
<!DOCTYPE svg PUBLIC "-//W3C//DTD SVG 1.1//EN" "http://www.w3.org/Graphics/SVG/1.1/DTD/svg11.dtd">
<svg version="1.1" id="Слой_2" xmlns="http://www.w3.org/2000/svg" xmlns:xlink="http://www.w3.org/1999/xlink" x="0px" y="0px"
	 width="595.275px" height="595.276px" viewBox="-27.351 13.879 595.275 595.276"
	 enable-background="new -27.351 13.879 595.275 595.276" xml:space="preserve">
<g>
	<path fill="#54A0FF" d="M525.405,294.209c0-60.878-49.511-110.391-110.394-110.391c-26.787,0-51.366,9.612-70.513,25.541h-57.473
		V102.945c0-16.432,13.365-29.798,29.802-29.798c16.425,0,29.791,13.366,29.791,29.798v21.282c0,23.471,19.099,42.566,42.563,42.566
		c23.476,0,42.571-19.095,42.571-42.566V56.122h-17.023v68.104c0,14.081-11.462,25.539-25.548,25.539
		c-14.078,0-25.536-11.458-25.536-25.539v-21.282c0-25.813-21.005-46.823-46.817-46.823c-25.814,0-46.825,21.01-46.825,46.823
		v106.414h-74.617c-19.038-15.597-43.351-24.978-69.826-24.978c-60.872,0-110.391,49.513-110.391,110.389
		c0,21.107,6.062,40.778,16.37,57.566L21.485,499.173c0,37.355,30.392,67.74,67.73,67.74c30.146,0,56.221-19.402,64.811-48.058
		l29.142-88.324c8.827,15.331,25.343,25.699,44.266,25.699c17.76,0,33.41-9.116,42.569-22.898
		c9.159,13.792,24.807,22.898,42.569,22.898c19.821,0,37.011-11.38,45.471-27.933l29.802,90.325
		c8.663,28.888,34.748,48.29,64.894,48.29c37.356,0,67.737-30.385,67.72-68.322l-10.223-148.788
		C519.821,333.448,525.405,314.489,525.405,294.209z M508.38,294.209c0,15.453-3.828,29.999-10.506,42.85l-3.621,5.962
		c-4.083,6.745-8.927,12.782-14.333,18.152c-1.089,1.056-2.224,2.051-3.362,3.058c-1.095,0.979-2.198,1.916-3.329,2.834
		c-15.978,12.796-36.208,20.5-58.218,20.5c-51.476,0-93.362-41.883-93.362-93.363c0-19.18,5.83-37.016,15.785-51.863
		c0.123-0.17,0.229-0.348,0.349-0.519c1.276-1.872,2.664-3.663,4.069-5.44c0.895-1.107,1.794-2.213,2.745-3.285
		c0.832-0.962,1.697-1.908,2.573-2.837c1.973-2.051,3.986-4.062,6.146-5.94c0.029-0.018,0.049-0.045,0.073-0.062l3.061-2.663
		c16.043-12.95,36.394-20.747,58.561-20.747C466.5,200.846,508.38,242.729,508.38,294.209z M270.011,226.384h17.028h40.865
		c-15.324,19.351-23.844,43.392-23.844,68.386c0,21.729,6.31,42.508,17.898,60.181c-0.155-0.025-0.317-0.017-0.473-0.041
		c-2.897-0.512-5.86-0.828-8.906-0.828c-2.015,0-3.986,0.146-5.936,0.375c-0.723,0.086-1.421,0.213-2.136,0.323
		c-1.178,0.186-2.355,0.401-3.499,0.674c-0.878,0.203-1.747,0.426-2.616,0.674c-0.892,0.263-1.769,0.552-2.647,0.856
		c-0.97,0.341-1.949,0.666-2.895,1.065c-0.435,0.19-0.853,0.409-1.288,0.604c-2.397,1.084-4.688,2.335-6.867,3.764
		c-0.266,0.17-0.536,0.325-0.794,0.496c-1.071,0.729-2.093,1.514-3.105,2.321c-0.409,0.325-0.819,0.658-1.209,0.988
		c-0.938,0.792-1.839,1.611-2.715,2.47c-0.459,0.453-0.902,0.927-1.345,1.404c-0.767,0.818-1.542,1.618-2.258,2.486
		c-1.107,1.328-2.135,2.709-3.105,4.146c-0.052,0.077-0.113,0.145-0.162,0.211c-0.053-0.076-0.11-0.142-0.162-0.211
		c-0.963-1.429-1.993-2.81-3.09-4.13c-0.742-0.893-1.542-1.729-2.342-2.57c-0.419-0.434-0.815-0.876-1.243-1.295
		c-0.892-0.885-1.83-1.72-2.792-2.538c-0.365-0.304-0.73-0.605-1.104-0.901c-1.04-0.836-2.095-1.644-3.204-2.39
		c-0.194-0.131-0.397-0.249-0.586-0.378c-2.3-1.515-4.724-2.842-7.27-3.975c-0.341-0.153-0.674-0.333-1.022-0.484
		c-0.971-0.41-1.966-0.742-2.972-1.092c-0.849-0.296-1.71-0.585-2.578-0.84c-0.876-0.256-1.754-0.479-2.647-0.682
		c-1.14-0.264-2.298-0.477-3.475-0.666c-0.714-0.109-1.422-0.245-2.151-0.328c-1.934-0.232-3.91-0.378-5.917-0.378
		c-1.866,0-3.706,0.113-5.524,0.308c-0.029,0-0.061,0-0.093,0.008c11.449-17.648,17.705-38.302,17.705-59.628
		c0-25.002-8.514-49.035-23.835-68.386H270.011z M125.568,201.406c51.478,0,93.364,41.887,93.364,93.363
		c0,51.115-41.306,92.717-92.284,93.305c-32.502-0.287-61.985-17.051-78.951-45.054l-9.535-15.711
		c-3.789-10.15-5.968-21.079-5.968-32.54C32.212,243.293,74.097,201.406,125.568,201.406z M137.809,513.748
		c-6.486,21.616-26.016,36.138-48.593,36.138c-27.966,0-50.713-22.743-50.73-50.133l8.743-127.308
		c20.032,20.186,47.743,32.717,78.339,32.717c0.331,0,0.647-0.043,0.97-0.05c0.323,0,0.639,0.05,0.963,0.05
		c17.502,0,34.667-4.196,50.098-12.073L137.809,513.748z M494.597,370.597l8.854,128.575c0,27.97-22.749,50.713-50.714,50.713
		c-22.569,0-42.091-14.521-48.654-36.361l-39.731-120.427c15.427,7.869,32.599,12.065,50.1,12.065
		c29.006,0,55.915-11.212,76.169-30.731c1.133-1.063,2.275-2.119,3.363-3.236C494.181,370.991,494.41,370.812,494.597,370.597z"/>
	<path fill="#B3D7FF" d="M227.445,439.215c-18.78,0-34.054-15.273-34.054-34.053c0-8.394,3.167-15.995,8.226-21.938l2.042-2.052
		c4.852-4.871,10.819-8.098,17.231-9.408c2.127-0.416,4.308-0.664,6.555-0.664c2.34,0,4.629,0.241,6.833,0.69
		c0.156,0.025,0.284,0.093,0.435,0.126c2.063,0.45,4.061,1.048,5.96,1.854c0.077,0.038,0.138,0.086,0.212,0.114
		c1.943,0.832,3.799,1.838,5.532,3.006c0.256,0.169,0.463,0.388,0.718,0.567c1.49,1.065,2.92,2.206,4.223,3.485
		c0.67,0.671,1.226,1.444,1.838,2.17c0.748,0.868,1.532,1.703,2.187,2.649c1.03,1.498,1.907,3.105,2.691,4.773
		c0.11,0.241,0.263,0.444,0.373,0.691c1.747,3.95,2.786,8.309,2.923,12.915l0.056,1.776c-0.039,2.062-0.21,4.106-0.612,6.063
		l-0.008,0.053C257.608,427.534,243.865,439.215,227.445,439.215z"/>
	<path fill="#B3D7FF" d="M312.58,439.215c-16.427,0-30.165-11.681-33.356-27.173l-0.008-0.054c-0.402-1.964-0.573-3.998-0.613-6.07
		l0.056-1.822c0.146-4.604,1.186-8.955,2.94-12.894c0.102-0.223,0.235-0.41,0.34-0.623c0.792-1.688,1.687-3.311,2.735-4.837
		c0.603-0.859,1.318-1.618,1.996-2.417c0.674-0.8,1.287-1.653,2.038-2.392c1.206-1.193,2.554-2.24,3.929-3.243
		c0.342-0.256,0.642-0.562,1.001-0.799c1.647-1.11,3.423-2.045,5.251-2.855c0.17-0.076,0.316-0.188,0.482-0.255
		c1.851-0.782,3.79-1.353,5.788-1.795c0.21-0.042,0.396-0.136,0.601-0.179c2.192-0.458,4.481-0.698,6.82-0.698
		c2.069,0,4.075,0.256,6.05,0.613c0.649,0.118,1.282,0.272,1.924,0.426c1.34,0.323,2.639,0.739,3.913,1.219
		c0.65,0.246,1.309,0.45,1.933,0.729c1.657,0.741,3.249,1.591,4.743,2.581c0.657,0.433,1.251,0.943,1.885,1.422
		c0.893,0.67,1.761,1.37,2.581,2.129c0.686,0.638,1.34,1.302,1.973,1.99c0.646,0.708,1.243,1.457,1.826,2.224
		c0.611,0.792,1.243,1.557,1.779,2.4c0.479,0.741,0.845,1.549,1.265,2.325c0.383,0.714,0.813,1.386,1.147,2.127l0.511,1.132
		c1.592,3.942,2.518,8.223,2.518,12.726C346.626,423.941,331.364,439.215,312.58,439.215z"/>
	<path fill="#54A0FF" d="M261.499,268.952h25.54c4.705,0,8.51-3.809,8.51-8.515c0-4.709-3.805-8.513-8.51-8.513h-25.54
		c-4.711,0-8.515,3.804-8.515,8.513C252.983,265.143,256.788,268.952,261.499,268.952z"/>
	<path fill="#54A0FF" d="M470.07,320.031c16.431,0,29.796-13.366,29.796-29.796c0-16.431-13.365-29.797-29.796-29.797
		c-16.432,0-29.797,13.366-29.797,29.797C440.273,306.665,453.638,320.031,470.07,320.031z"/>
	<path fill="#B3D7FF" d="M470.07,277.465c7.041,0,12.769,5.729,12.769,12.77c0,7.039-5.728,12.768-12.769,12.768
		c-7.04,0-12.769-5.729-12.769-12.768C457.301,283.195,463.03,277.465,470.07,277.465z"/>
	<path fill="#54A0FF" d="M329.598,290.235c0,16.43,13.372,29.796,29.8,29.796s29.798-13.366,29.798-29.796
		c0-16.431-13.37-29.797-29.798-29.797S329.598,273.803,329.598,290.235z"/>
	<path fill="#B3D7FF" d="M372.172,290.235c0,7.039-5.734,12.768-12.774,12.768c-7.038,0-12.771-5.729-12.771-12.768
		c0-7.04,5.733-12.77,12.771-12.77C366.438,277.465,372.172,283.195,372.172,290.235z"/>
	<path fill="#54A0FF" d="M80.303,320.031h19.452v19.451c0,8.047,6.555,14.6,14.602,14.6h21.879c8.042,0,14.599-6.553,14.599-14.6
		v-19.451h19.451c8.047,0,14.6-6.557,14.6-14.6v-21.879c0-8.046-6.553-14.599-14.6-14.599h-19.451v-19.456
		c0-8.042-6.557-14.6-14.599-14.6h-21.879c-8.047,0-14.602,6.558-14.602,14.6v19.456H80.303c-8.045,0-14.6,6.553-14.6,14.599v21.879
		C65.703,313.474,72.249,320.031,80.303,320.031z"/>
	<path fill="#B3D7FF" d="M82.729,285.976h34.053v-34.051h17.025v34.051h34.052v17.027h-34.052v34.056h-17.025v-34.056H82.729
		C82.721,303.003,82.721,285.976,82.729,285.976z"/>
	<g>
		<path fill="#54A0FF" d="M414.737,307.261c-16.435,0-29.8,13.366-29.8,29.797c0,16.428,13.365,29.795,29.8,29.795
			c16.427,0,29.792-13.368,29.792-29.795C444.529,320.628,431.155,307.261,414.737,307.261z"/>
		<path fill="#B3D7FF" d="M414.737,349.827c-7.039,0-12.773-5.729-12.773-12.768c0-7.044,5.734-12.774,12.773-12.774
			c7.04,0,12.768,5.729,12.768,12.774C427.504,344.098,421.777,349.827,414.737,349.827z"/>
	</g>
	<g>
		<path fill="#54A0FF" d="M414.737,273.207c16.427,0,29.792-13.365,29.792-29.797c0-16.43-13.365-29.796-29.792-29.796
			c-16.435,0-29.8,13.366-29.8,29.796C384.937,259.842,398.302,273.207,414.737,273.207z"/>
		<path fill="#B3D7FF" d="M414.737,230.642c7.04,0,12.768,5.729,12.768,12.768c0,7.041-5.728,12.77-12.768,12.77
			c-7.039,0-12.773-5.729-12.773-12.77C401.963,236.371,407.698,230.642,414.737,230.642z"/>
	</g>
</g>
</svg>
