<?xml version="1.0" encoding="utf-8"?>
<!-- Generator: Adobe Illustrator 16.0.0, SVG Export Plug-In . SVG Version: 6.00 Build 0)  -->
<!DOCTYPE svg PUBLIC "-//W3C//DTD SVG 1.1//EN" "http://www.w3.org/Graphics/SVG/1.1/DTD/svg11.dtd">
<svg version="1.1" id="Слой_4" xmlns="http://www.w3.org/2000/svg" xmlns:xlink="http://www.w3.org/1999/xlink" x="0px" y="0px"
	 width="595.275px" height="595.276px" viewBox="-27.351 13.879 595.275 595.276"
	 enable-background="new -27.351 13.879 595.275 595.276" xml:space="preserve">
<g>
	<g>
		<g>
			<circle fill="#54A0FF" cx="60.638" cy="101.868" r="8.386"/>
			<circle fill="#54A0FF" cx="479.935" cy="101.868" r="8.386"/>
			<circle fill="#54A0FF" cx="60.638" cy="521.165" r="8.387"/>
			<circle fill="#54A0FF" cx="110.955" cy="529.551" r="8.386"/>
			<circle fill="#54A0FF" cx="144.498" cy="529.551" r="8.386"/>
			<circle fill="#54A0FF" cx="178.041" cy="529.551" r="8.386"/>
			<circle fill="#54A0FF" cx="211.585" cy="529.551" r="8.386"/>
			<circle fill="#54A0FF" cx="337.375" cy="386.99" r="8.386"/>
			<circle fill="#54A0FF" cx="303.831" cy="386.99" r="8.386"/>
			<circle fill="#54A0FF" cx="320.603" cy="361.832" r="8.385"/>
			<circle fill="#54A0FF" cx="270.287" cy="386.99" r="8.386"/>
			<circle fill="#54A0FF" cx="236.742" cy="386.99" r="8.386"/>
			<circle fill="#54A0FF" cx="287.058" cy="361.832" r="8.385"/>
			<circle fill="#54A0FF" cx="253.516" cy="361.832" r="8.385"/>
			<circle fill="#54A0FF" cx="203.199" cy="386.99" r="8.386"/>
			<circle fill="#54A0FF" cx="219.972" cy="361.832" r="8.385"/>
			<circle fill="#54A0FF" cx="337.375" cy="336.674" r="8.385"/>
			<circle fill="#54A0FF" cx="303.831" cy="336.674" r="8.385"/>
			<circle fill="#54A0FF" cx="320.603" cy="311.517" r="8.386"/>
			<circle fill="#54A0FF" cx="270.287" cy="336.674" r="8.385"/>
			<circle fill="#54A0FF" cx="236.742" cy="336.674" r="8.385"/>
			<circle fill="#54A0FF" cx="287.058" cy="311.517" r="8.386"/>
			<circle fill="#54A0FF" cx="253.516" cy="311.517" r="8.386"/>
			<circle fill="#54A0FF" cx="203.199" cy="336.674" r="8.385"/>
			<circle fill="#54A0FF" cx="219.972" cy="311.517" r="8.386"/>
			<circle fill="#54A0FF" cx="337.375" cy="286.359" r="8.386"/>
			<circle fill="#54A0FF" cx="303.831" cy="286.359" r="8.386"/>
			<circle fill="#54A0FF" cx="320.603" cy="261.201" r="8.386"/>
			<circle fill="#54A0FF" cx="270.287" cy="286.359" r="8.386"/>
			<circle fill="#54A0FF" cx="236.742" cy="286.359" r="8.386"/>
			<circle fill="#54A0FF" cx="287.058" cy="261.201" r="8.386"/>
			<circle fill="#54A0FF" cx="253.516" cy="261.201" r="8.386"/>
			<circle fill="#54A0FF" cx="203.199" cy="286.359" r="8.386"/>
			<circle fill="#54A0FF" cx="219.972" cy="261.201" r="8.386"/>
			<circle fill="#54A0FF" cx="337.375" cy="236.043" r="8.386"/>
			<circle fill="#54A0FF" cx="303.831" cy="236.043" r="8.386"/>
			<circle fill="#54A0FF" cx="270.287" cy="236.043" r="8.386"/>
			<circle fill="#54A0FF" cx="236.742" cy="236.043" r="8.386"/>
			<circle fill="#54A0FF" cx="203.199" cy="236.043" r="8.386"/>
			<circle fill="#54A0FF" cx="479.935" cy="521.165" r="8.387"/>
			<circle fill="#54A0FF" cx="52.253" cy="370.218" r="8.386"/>
			<circle fill="#54A0FF" cx="52.253" cy="403.762" r="8.385"/>
			<path fill="#54A0FF" d="M52.253,428.921c4.631,0,8.385,3.754,8.385,8.383c0,4.633-3.754,8.389-8.385,8.389
				c-4.632,0-8.386-3.756-8.386-8.389C43.867,432.675,47.622,428.921,52.253,428.921z"/>
			<circle fill="#54A0FF" cx="52.253" cy="470.848" r="8.387"/>
		</g>
		<path fill="#54A0FF" d="M446.391,269.588c4.628,0,8.387-3.749,8.387-8.387c0-4.637-3.759-8.386-8.387-8.386h-16.771v-16.772
			h-33.545v-13.778c0-20.144-16.395-36.538-36.536-36.538h-13.778v-33.544h-16.774v-16.771c0-4.638-3.757-8.386-8.384-8.386
			c-4.63,0-8.386,3.748-8.386,8.386v16.771h-16.773v-16.771c0-4.638-3.758-8.386-8.387-8.386c-4.628,0-8.384,3.748-8.384,8.386
			v16.771h-16.772v-16.771c0-4.638-3.757-8.386-8.385-8.386c-4.63,0-8.387,3.748-8.387,8.386v16.771h-16.772v-16.771
			c0-4.638-3.757-8.386-8.386-8.386c-4.63,0-8.387,3.748-8.387,8.386v16.771h-16.771v33.544h-13.779
			c-20.144,0-36.537,16.395-36.537,36.538v13.778h-33.543v16.772H94.182c-4.629,0-8.386,3.749-8.386,8.386
			c0,4.638,3.757,8.387,8.386,8.387h16.772v16.771H94.182c-4.629,0-8.386,3.749-8.386,8.386c0,4.637,3.757,8.386,8.386,8.386h16.772
			v16.772H94.182c-4.629,0-8.386,3.749-8.386,8.386s3.757,8.386,8.386,8.386h16.772v16.772H94.182c-4.629,0-8.386,3.749-8.386,8.385
			c0,4.638,3.757,8.385,8.386,8.385h16.772v16.772h33.543v13.778c0,20.143,16.394,36.535,36.537,36.535h13.779v33.545h16.771v16.771
			c0,4.639,3.757,8.387,8.387,8.387c4.628,0,8.386-3.748,8.386-8.387v-16.771h16.772v16.771c0,4.639,3.757,8.387,8.387,8.387
			c4.628,0,8.385-3.748,8.385-8.387v-16.771h16.772v16.771c0,4.639,3.756,8.387,8.384,8.387c4.629,0,8.387-3.748,8.387-8.387
			v-16.771h16.773v16.771c0,4.639,3.756,8.387,8.386,8.387c4.627,0,8.384-3.748,8.384-8.387v-16.771h16.774v-33.545h13.778
			c20.142,0,36.536-16.393,36.536-36.535V386.99h33.545v-16.772h16.771c4.628,0,8.387-3.748,8.387-8.385
			c0-4.637-3.759-8.385-8.387-8.385h-16.771v-16.772h16.771c4.628,0,8.387-3.749,8.387-8.386s-3.759-8.386-8.387-8.386h-16.771
			v-16.772h16.771c4.628,0,8.387-3.749,8.387-8.386c0-4.638-3.759-8.386-8.387-8.386h-16.771v-16.771H446.391z M379.302,236.043
			V386.99v13.778c0,10.902-8.871,19.767-19.763,19.767h-13.778H194.814h-13.779c-10.894,0-19.765-8.874-19.765-19.767V386.99
			V236.043v-13.778c0-10.901,8.872-19.766,19.765-19.766h13.779h150.947h13.778c10.901,0,19.763,8.872,19.763,19.766V236.043z"/>
		<g>
			<rect x="127.726" y="252.815" fill="#B3D7FF" width="16.772" height="117.402"/>
			<rect x="211.585" y="168.955" fill="#B3D7FF" width="117.402" height="16.772"/>
			<rect x="211.585" y="437.303" fill="#B3D7FF" width="117.402" height="16.773"/>
			<rect x="396.076" y="252.815" fill="#B3D7FF" width="16.771" height="117.402"/>
		</g>
		<path fill="#54A0FF" d="M475.75,59.939h-71.287v8.386c0,13.87-11.289,25.157-25.16,25.157c-13.868,0-25.157-11.287-25.157-25.157
			v-8.386H64.823c-25.426,0-46.114,20.687-46.114,46.113v54.517h33.544v16.772H18.709v339.639c0,25.424,20.688,46.113,46.114,46.113
			h289.322v-8.387c0-13.869,11.289-25.156,25.157-25.156c13.871,0,25.16,11.287,25.16,25.156v8.387h71.287
			c25.427,0,46.115-20.689,46.115-46.113V106.052C521.865,80.626,501.176,59.939,475.75,59.939z M505.092,202.5h-16.771
			c-4.628,0-8.386,3.748-8.386,8.386c0,4.637,3.758,8.385,8.386,8.385h16.771v8.386h-16.771c-4.628,0-8.386,3.749-8.386,8.386
			s3.758,8.386,8.386,8.386h16.771v8.386h-16.771c-4.628,0-8.386,3.749-8.386,8.386c0,4.638,3.758,8.387,8.386,8.387h16.771v8.385
			h-16.771c-4.628,0-8.386,3.75-8.386,8.386c0,4.638,3.758,8.386,8.386,8.386h16.771v8.386h-16.771
			c-4.628,0-8.386,3.749-8.386,8.386s3.758,8.386,8.386,8.386h16.771v8.386h-16.771c-4.628,0-8.386,3.747-8.386,8.386
			c0,4.638,3.758,8.385,8.386,8.385h16.771v8.387h-16.771c-4.628,0-8.386,3.749-8.386,8.385c0,4.638,3.758,8.385,8.386,8.385h16.771
			v8.387h-16.771c-4.628,0-8.386,3.749-8.386,8.386c0,4.638,3.758,8.387,8.386,8.387h16.771v8.385h-16.771
			c-4.628,0-8.386,3.749-8.386,8.386c0,4.638,3.758,8.388,8.386,8.388h16.771v96.446c0,16.184-13.157,29.342-29.343,29.342h-55.363
			c-3.891-19.113-20.839-33.545-41.084-33.545c-20.242,0-37.19,14.432-41.08,33.545H64.823c-16.185,0-29.342-13.158-29.342-29.342
			V194.114h33.543v-50.316H35.481v-37.746c0-16.184,13.157-29.342,29.342-29.342h273.399c3.89,19.112,20.829,33.544,41.08,33.544
			c20.254,0,37.193-14.432,41.084-33.544h55.363c16.186,0,29.343,13.158,29.343,29.342V202.5z"/>
	</g>
</g>
</svg>
