<?xml version="1.0" encoding="utf-8"?>
<!-- Generator: Adobe Illustrator 16.0.0, SVG Export Plug-In . SVG Version: 6.00 Build 0)  -->
<!DOCTYPE svg PUBLIC "-//W3C//DTD SVG 1.1//EN" "http://www.w3.org/Graphics/SVG/1.1/DTD/svg11.dtd">
<svg version="1.1" id="Слой_5" xmlns="http://www.w3.org/2000/svg" xmlns:xlink="http://www.w3.org/1999/xlink" x="0px" y="0px"
	 width="595.275px" height="595.276px" viewBox="-27.351 13.879 595.275 595.276"
	 enable-background="new -27.351 13.879 595.275 595.276" xml:space="preserve">
<path fill="#54A0FF" d="M484.585,356.157v-44.644h8.924v-23.34c0-50.351-18.789-98.906-52.727-137.57
	c0.595-2.206,1.009-4.466,0.999-6.787c-0.029-7.204-3.087-14.079-8.384-18.884C393.906,89.153,321.455,70.43,270.286,70.43
	c-51.164,0-123.623,18.723-163.116,54.493c-5.295,4.805-8.35,11.69-8.374,18.887c0,0.927,0.188,1.831,0.277,2.75
	c-33.486,38.744-52.014,88.783-52.014,141.615v23.34h8.93v44.644c-29.544,0-53.577,24.033-53.577,53.578v89.29
	c0,29.547,24.032,53.579,53.577,53.579h2.589h6.341h40.304c22.083,0,40.056-17.982,40.056-40.057V398.904
	c0-21.165-15.5-38.653-35.716-42.038v-45.353h8.93v-23.34c0-33.966,12.142-67.489,33.277-92.865
	c6.305,0.138,12.681-1.978,17.805-6.416c20.145-17.448,68.337-29.173,100.712-29.173c32.385,0,80.563,11.725,100.704,29.173
	c3.886,3.358,8.482,5.365,13.228,6.099c24.039,25.93,37.86,59.67,37.86,93.182v23.34h8.929v45.358
	c-20.205,3.379-35.707,20.867-35.707,42.042v113.644c0,22.064,17.963,40.047,40.056,40.047h40.295h6.346h2.59
	c29.549,0,53.574-24.032,53.574-53.579v-89.29C538.16,380.191,514.134,356.157,484.585,356.157z M126.289,391.875h-16.726
	c-4.93,0-8.927,3.995-8.927,8.929c0,4.941,3.997,8.932,8.927,8.932h17.857v17.856h-17.857c-4.93,0-8.927,3.989-8.927,8.938
	c0,4.933,3.997,8.915,8.927,8.915h17.857v17.863h-17.857c-4.93,0-8.927,3.994-8.927,8.927c0,4.941,3.997,8.938,8.927,8.938h17.857
	v17.854h-17.857c-4.93,0-8.927,3.989-8.927,8.931c0,4.938,3.997,8.923,8.927,8.923h17.422
	c-2.026,10.172-11.013,17.858-21.762,17.858H64.919V374.02h37.618C113.805,374.02,123.234,381.592,126.289,391.875z M73.846,356.157
	v-44.644h17.858v44.644H73.846z M100.636,288.174v5.485H64.919v-5.485c0-46.037,15.168-89.811,42.922-124.48l26.586,24.438
	C112.562,216.285,100.636,251.409,100.636,288.174z M475.65,534.737h-40.295c-10.764,0-19.738-7.687-21.768-17.858h17.419
	c4.93,0,8.938-3.985,8.938-8.923c0-4.941-4.008-8.931-8.938-8.931h-17.853v-17.854h17.853c4.93,0,8.938-3.996,8.938-8.938
	c0-4.933-4.008-8.927-8.938-8.927h-17.853v-17.863h17.853c4.93,0,8.938-3.982,8.938-8.915c0-4.948-4.008-8.938-8.938-8.938h-17.853
	v-17.856h17.853c4.93,0,8.938-3.991,8.938-8.932c0-4.934-4.008-8.929-8.938-8.929h-16.716c3.044-10.283,12.475-17.854,23.745-17.854
	h37.614V534.737z M448.868,356.157v-44.644h17.86v44.644H448.868z M475.65,293.659h-35.706v-5.485
	c0-34.866-13.044-69.941-36.14-98.049c0.64-0.49,1.262-1.003,1.848-1.548l24.852-22.83c29.19,34.813,45.146,77.922,45.146,122.427
	V293.659z"/>
<path fill="#B3D7FF" d="M47.059,533.608c-15.385-3.968-26.785-17.976-26.785-34.583v-89.29c0-16.607,11.399-30.62,26.785-34.585
	V533.608z"/>
<path fill="#B3D7FF" d="M393.56,175.427c-0.031,0.027-0.067,0.027-0.088,0.051c-0.862,0.761-1.762,1.262-2.61,1.554
	c-0.563,0.195-1.168,0.251-1.761,0.324c-0.23,0.018-0.524,0.115-0.732,0.126l-0.346,0.008c-1.877-0.055-3.759-0.734-5.337-2.092
	c-26.683-23.134-81.805-33.535-112.4-33.535c-30.596,0-85.708,10.401-112.409,33.525c-2.247,1.938-5.104,2.458-7.671,1.734
	c-1.274-0.36-2.336-0.904-3.203-1.696l-27.7-25.458c0,0,0-0.009-0.009-0.009c-0.942-0.867-1.631-2.054-2.106-3.458
	c-0.286-0.846-0.543-1.712-0.543-2.622c0.01-2.233,0.899-4.268,2.51-5.725c35.757-32.395,104.562-49.869,151.132-49.869
	c46.582,0,115.375,17.474,151.121,49.869c1.609,1.457,2.509,3.492,2.513,5.725c0,1.106-0.237,2.188-0.663,3.186l-0.277,0.501
	c-0.404,0.805-0.911,1.555-1.572,2.188c-0.052,0.053-0.099,0.168-0.157,0.214L393.56,175.427L393.56,175.427z"/>
<path fill="#B3D7FF" d="M520.298,499.025c0,16.607-11.402,30.615-26.789,34.583V375.15c15.387,3.965,26.789,17.978,26.789,34.585
	V499.025z"/>
</svg>
