<?xml version="1.0" encoding="utf-8"?>
<!-- Generator: Adobe Illustrator 16.0.0, SVG Export Plug-In . SVG Version: 6.00 Build 0)  -->
<!DOCTYPE svg PUBLIC "-//W3C//DTD SVG 1.1//EN" "http://www.w3.org/Graphics/SVG/1.1/DTD/svg11.dtd">
<svg version="1.1" id="Слой_6" xmlns="http://www.w3.org/2000/svg" xmlns:xlink="http://www.w3.org/1999/xlink" x="0px" y="0px"
	 width="595.275px" height="595.276px" viewBox="-27.351 13.879 595.275 595.276"
	 enable-background="new -27.351 13.879 595.275 595.276" xml:space="preserve">
<g>
	<g>
		<g>
			<path fill="#54A0FF" d="M534.812,451.118H521.58V153.921c0-20.876-16.979-37.853-37.849-37.853H56.837
				c-20.866,0-37.84,16.977-37.84,37.853v297.197H5.761c-8.095,0-14.687,6.594-14.687,14.691v26.466
				c0,8.097,6.592,14.689,14.687,14.689h529.051c8.098,0,14.688-6.593,14.688-14.689v-26.466
				C549.5,457.712,542.91,451.118,534.812,451.118z M493.656,441.82H46.917V143.99h446.739V441.82z"/>
		</g>
	</g>
	<g>
		<g>
			<path fill="#B3D7FF" d="M483.721,134.683H56.837c-10.599,0-19.228,8.626-19.228,19.238v297.197h193.561l2.206,6.172
				c0.567,1.566,2.122,3.141,4.337,3.141h74.451c2.222,0,3.776-1.574,4.344-3.141l2.199-6.172h184.252V153.921
				C502.959,143.31,494.333,134.683,483.721,134.683z M475.043,423.199H65.531V162.602h409.513V423.199z"/>
		</g>
	</g>
	<path fill="#B3D7FF" d="M530.882,488.353H9.69v-18.619h9.307H219.18c4.319,5.749,11.151,9.307,18.534,9.307h74.451
		c7.385,0,14.211-3.558,18.535-9.307h190.88h9.303V488.353z"/>
	<g>
		<path fill="#54A0FF" d="M102.76,246.365c2.383,0,4.764-0.909,6.579-2.723l37.228-37.229c3.642-3.64,3.642-9.521,0-13.161
			c-3.639-3.641-9.521-3.641-13.159,0l-37.229,37.229c-3.638,3.639-3.638,9.521,0,13.161
			C97.994,245.456,100.378,246.365,102.76,246.365z"/>
		<path fill="#54A0FF" d="M102.76,292.904c2.383,0,4.764-0.915,6.579-2.729l18.616-18.615c3.638-3.64,3.638-9.522,0-13.161
			c-3.639-3.638-9.521-3.638-13.161,0l-18.615,18.617c-3.638,3.638-3.638,9.521,0,13.159
			C97.994,291.99,100.378,292.904,102.76,292.904z"/>
		<path fill="#54A0FF" d="M133.379,239.759c-1.684,1.77-2.698,4.189-2.698,6.606c0,2.42,1.014,4.842,2.698,6.611
			c1.759,1.673,4.19,2.698,6.608,2.698c2.421,0,4.839-1.025,6.609-2.698c1.675-1.77,2.699-4.191,2.699-6.611
			c0-2.417-1.024-4.836-2.699-6.606C143.153,236.317,136.721,236.409,133.379,239.759z"/>
		<path fill="#54A0FF" d="M152.022,234.334c1.815,1.815,4.197,2.725,6.579,2.725c2.383,0,4.766-0.91,6.583-2.725l27.919-27.92
			c3.639-3.64,3.639-9.521,0-13.161c-3.641-3.641-9.521-3.641-13.163,0l-27.918,27.918
			C148.382,224.812,148.382,230.692,152.022,234.334z"/>
		<path fill="#54A0FF" d="M102.76,339.441c2.383,0,4.764-0.916,6.579-2.73l83.765-83.762c3.639-3.639,3.639-9.522,0-13.16
			c-3.641-3.64-9.521-3.64-13.163,0l-83.762,83.762c-3.638,3.64-3.638,9.522,0,13.16C97.994,338.525,100.378,339.441,102.76,339.441
			z"/>
		<path fill="#54A0FF" d="M198.529,234.36c1.762,1.678,4.19,2.699,6.606,2.699c2.421,0,4.843-1.021,6.612-2.699
			c1.672-1.766,2.698-4.186,2.698-6.606c0-2.514-1.026-4.842-2.698-6.608c-3.446-3.446-9.683-3.446-13.218,0
			c-1.684,1.766-2.699,4.188-2.699,6.608S196.845,232.594,198.529,234.36z"/>
		<path fill="#54A0FF" d="M223.752,218.447c2.381,0,4.763-0.914,6.578-2.728l9.311-9.306c3.638-3.64,3.638-9.521,0-13.161
			c-3.643-3.641-9.521-3.641-13.163,0l-9.309,9.307c-3.638,3.639-3.638,9.521,0,13.159
			C218.984,217.533,221.369,218.447,223.752,218.447z"/>
	</g>
</g>
</svg>
