<?xml version="1.0" encoding="utf-8"?>
<!-- Generator: Adobe Illustrator 16.0.0, SVG Export Plug-In . SVG Version: 6.00 Build 0)  -->
<!DOCTYPE svg PUBLIC "-//W3C//DTD SVG 1.1//EN" "http://www.w3.org/Graphics/SVG/1.1/DTD/svg11.dtd">
<svg version="1.1" id="Слой_8" xmlns="http://www.w3.org/2000/svg" xmlns:xlink="http://www.w3.org/1999/xlink" x="0px" y="0px"
	 width="595.275px" height="595.276px" viewBox="-27.351 13.879 595.275 595.276"
	 enable-background="new -27.351 13.879 595.275 595.276" xml:space="preserve">
<g>
	<g>
		<g>
			<path fill="#54A0FF" d="M155.891,174.234c2.342,0,4.686-0.895,6.469-2.68l36.609-36.608c3.579-3.579,3.579-9.363,0-12.942
				c-3.579-3.578-9.364-3.578-12.943,0l-36.608,36.609c-3.578,3.578-3.578,9.362,0,12.941
				C151.213,173.339,153.547,174.234,155.891,174.234z"/>
			<path fill="#54A0FF" d="M155.891,219.997c2.342,0,4.686-0.898,6.469-2.683l18.304-18.305c3.58-3.578,3.58-9.362,0-12.94
				c-3.58-3.578-9.362-3.578-12.94,0l-18.306,18.304c-3.578,3.578-3.578,9.361,0,12.941
				C151.213,219.099,153.547,219.997,155.891,219.997z"/>
			<path fill="#54A0FF" d="M186.01,167.738c-1.648,1.729-2.654,4.118-2.654,6.497c0,2.381,1.006,4.76,2.654,6.5
				c1.729,1.647,4.109,2.653,6.489,2.653s4.759-1.006,6.497-2.653c1.647-1.74,2.655-4.119,2.655-6.5
				c0-2.479-1.007-4.767-2.655-6.497C195.611,164.35,189.478,164.35,186.01,167.738z"/>
			<path fill="#54A0FF" d="M204.333,162.402c1.793,1.785,4.127,2.682,6.47,2.682c2.344,0,4.686-0.897,6.472-2.682l27.454-27.456
				c3.579-3.579,3.579-9.363,0-12.942c-3.577-3.578-9.361-3.578-12.938,0l-27.458,27.457
				C200.763,153.039,200.763,158.824,204.333,162.402z"/>
			<path fill="#54A0FF" d="M231.79,167.765l-82.371,82.369c-3.578,3.579-3.578,9.363,0,12.94c1.794,1.786,4.128,2.681,6.472,2.681
				c2.342,0,4.686-0.895,6.469-2.681l82.368-82.369c3.579-3.579,3.579-9.363,0-12.941
				C241.151,164.186,235.368,164.186,231.79,167.765z"/>
			<path fill="#54A0FF" d="M250.073,149.433c-1.646,1.729-2.654,4.017-2.654,6.497c0,2.38,1.008,4.76,2.654,6.499
				c1.731,1.646,4.112,2.654,6.493,2.654c2.379,0,4.755-1.007,6.496-2.654c1.647-1.739,2.655-4.119,2.655-6.499
				c0-2.48-1.008-4.768-2.655-6.406C259.674,146.046,253.451,146.046,250.073,149.433z"/>
			<path fill="#54A0FF" d="M277.546,122.004l-9.15,9.152c-3.579,3.579-3.579,9.363,0,12.942c1.796,1.784,4.126,2.681,6.471,2.681
				c2.342,0,4.686-0.897,6.471-2.681l9.152-9.152c3.578-3.579,3.578-9.363,0-12.942
				C286.913,118.426,281.128,118.426,277.546,122.004z"/>
		</g>
		<path fill="#54A0FF" d="M394.21,36.955H155.543c-19.989,0-36.262,16.263-36.262,36.259v18.652v27.458
			c-5.051,0-9.152,4.091-9.152,9.152v9.151c0,5.062,4.101,9.153,9.152,9.153v9.151c-5.051,0-9.152,4.092-9.152,9.153v9.151
			c0,5.063,4.101,9.153,9.152,9.153v9.152c-5.051,0-9.152,4.09-9.152,9.153v9.151c0,5.061,4.101,9.153,9.152,9.153v292.866v36.955
			c0,19.998,16.263,36.264,36.252,36.264h238.657c20.001,0,36.254-16.266,36.254-36.264v-36.955V91.866V73.214
			C430.452,53.218,414.192,36.955,394.21,36.955z M274.868,558.625c-10.095,0-18.302-8.212-18.302-18.307
			c0-10.093,8.208-18.305,18.302-18.305s18.302,8.212,18.302,18.305C293.17,550.413,284.972,558.625,274.868,558.625z
			 M137.585,110.171h274.563v384.388H137.585V110.171z"/>
		<path fill="#B3D7FF" d="M137.585,549.818v-36.955h113.322c-7.686,6.717-12.647,16.465-12.647,27.455
			c0,10.993,4.961,20.74,12.647,27.459h-95.363C145.639,567.777,137.585,559.724,137.585,549.818z"/>
		<path fill="#B3D7FF" d="M412.148,549.818c0,9.906-8.054,17.959-17.938,17.959h-95.386c7.694-6.719,12.653-16.466,12.653-27.459
			c0-10.99-4.959-20.738-12.653-27.455h113.323V549.818z"/>
		<path fill="#B3D7FF" d="M137.585,91.866V73.214c0-9.901,8.054-17.956,17.958-17.956h238.657c9.894,0,17.947,8.055,17.947,17.956
			v18.652H137.585z"/>
		<g>
			<path fill="#54A0FF" d="M311.478,64.41h-45.762c-5.054,0-9.151,4.091-9.151,9.151c0,5.062,4.097,9.152,9.151,9.152h45.762
				c5.051,0,9.15-4.09,9.15-9.152C320.628,68.501,316.529,64.41,311.478,64.41z"/>
			<path fill="#54A0FF" d="M238.259,64.41h-9.154c-5.05,0-9.151,4.091-9.151,9.151c0,5.062,4.101,9.152,9.151,9.152h9.154
				c5.052,0,9.154-4.09,9.154-9.152C247.413,68.501,243.311,64.41,238.259,64.41z"/>
		</g>
	</g>
</g>
</svg>
