<?xml version="1.0" encoding="utf-8"?>
<!-- Generator: Adobe Illustrator 16.0.0, SVG Export Plug-In . SVG Version: 6.00 Build 0)  -->
<!DOCTYPE svg PUBLIC "-//W3C//DTD SVG 1.1//EN" "http://www.w3.org/Graphics/SVG/1.1/DTD/svg11.dtd">
<svg version="1.1" id="Слой_3" xmlns="http://www.w3.org/2000/svg" xmlns:xlink="http://www.w3.org/1999/xlink" x="0px" y="0px"
	 width="595.275px" height="595.276px" viewBox="-27.351 13.879 595.275 595.276"
	 enable-background="new -27.351 13.879 595.275 595.276" xml:space="preserve">
<g>
	<path fill="#54A0FF" d="M499.446,209.939c-9.458-5.931-21.77-6.068-31.364-0.339c-9.365,5.591-15.036,15.342-15.145,26.085
		c-0.085,8.232,3.091,15.93,8.73,21.691c1.729,1.766,3.687,3.354,5.864,4.703c9.465,5.927,21.774,6.063,31.352,0.339
		c9.364-5.591,15.022-15.343,15.144-26.085C514.14,225.598,508.696,215.734,499.446,209.939z M489.926,247.446
		c-3.956,2.359-9.226,2.303-13.136-0.145c-4.112-2.593-6.445-6.745-6.39-11.43c0.049-4.69,2.47-8.792,6.638-11.283
		c3.96-2.367,9.237-2.303,13.135,0.143c1.001,0.623,1.893,1.335,2.668,2.127c2.437,2.489,3.767,5.743,3.735,9.292
		C496.52,240.832,494.099,244.947,489.926,247.446z"/>
	<path fill="#54A0FF" d="M174.99,496.533c-9.366,5.59-15.034,15.342-15.143,26.084c-0.086,8.232,3.089,15.932,8.729,21.693
		c1.729,1.764,3.687,3.352,5.863,4.703c9.465,5.926,21.775,6.061,31.353,0.338c9.365-5.592,15.021-15.342,15.143-26.084
		c0.108-10.73-5.337-20.594-14.574-26.404C196.903,490.933,184.593,490.795,174.99,496.533z M199.751,513.791
		c2.436,2.488,3.767,5.742,3.734,9.291c-0.056,4.682-2.47,8.791-6.643,11.289c-3.956,2.359-9.227,2.303-13.137-0.145
		c-4.101-2.605-6.452-6.74-6.389-11.43c0.049-4.691,2.469-8.791,6.638-11.285c3.96-2.363,9.237-2.301,13.135,0.146
		C198.083,512.287,198.975,512.998,199.751,513.791z"/>
	<path fill="#54A0FF" d="M544.804,217.563l-97.099-99.184l-6.236,6.105c-6.879,6.734-17.949,6.617-24.683-0.262
		c-6.733-6.878-6.616-17.948,0.263-24.682l6.235-6.105l-18.313-18.707l-12.21-12.472l-30.524-31.18L331.056,61.6l12.21,12.472
		L31.468,379.317l-12.209-12.472l-31.181,30.525l30.524,31.18l12.21,12.473l18.314,18.707l6.236-6.105
		c6.878-6.732,17.948-6.615,24.682,0.262c6.734,6.879,6.617,17.949-0.262,24.684l-6.236,6.104l97.099,99.186
		c10.421,10.643,27.555,10.818,38.2,0.396L544.39,255.761C555.035,245.341,555.218,228.201,544.804,217.563z M31.074,416.341
		l-18.315-18.708l6.236-6.104l12.211,12.473L367.949,74.335l-12.211-12.473l6.236-6.105l18.315,18.708L31.074,416.341z
		 M482.893,291.544l-30.525-31.181l-12.472,12.21l30.525,31.181l-6.237,6.105l-30.525-31.181l-12.472,12.209l30.525,31.181
		l-6.235,6.105l-30.526-31.181l-12.472,12.21l30.525,31.181l-6.235,6.105l-30.526-31.181l-12.471,12.209l30.525,31.181l-6.236,6.105
		l-30.525-31.181l-12.472,12.21l30.525,31.181l-6.236,6.105l-30.525-31.181l-12.473,12.209l30.526,31.181l-6.236,6.105
		l-30.526-31.181l-12.472,12.21l30.525,31.181l-6.235,6.105l-30.525-31.181l-12.473,12.209l30.527,31.181l-6.236,6.105
		l-30.526-31.181l-12.472,12.209l30.526,31.181l-6.237,6.105l-30.525-31.182l-12.473,12.211l30.525,31.182l-6.235,6.105
		l-30.525-31.182l-12.473,12.209l30.526,31.182l-6.236,6.105l-30.525-31.182l-12.472,12.211l30.526,31.18l-6.236,6.105
		l-30.525-31.182l-12.472,12.211l30.526,31.18l-49.289,48.254c-3.767,3.688-9.833,3.629-13.52-0.137L97.458,484.15
		c8.035-13.299,6.42-30.867-4.941-42.473s-28.886-13.586-42.359-5.842l-6.875-7.023L392.5,86.937l6.874,7.022
		c-8.035,13.299-6.42,30.867,4.941,42.472c11.361,11.605,28.886,13.587,42.358,5.843l85.659,87.498
		c3.687,3.766,3.622,9.826-0.15,13.519L482.893,291.544z"/>
	<g>
		<polygon fill="#54A0FF" points="440.813,186.188 428.603,173.716 416.132,185.926 410.027,179.69 422.499,167.48 410.289,155.009 
			397.817,167.218 391.712,160.982 404.184,148.772 391.975,136.301 379.502,148.511 367.292,136.038 317.405,184.877 
			329.616,197.349 317.143,209.56 329.352,222.031 341.825,209.821 347.929,216.057 335.458,228.267 347.667,240.739 
			360.139,228.53 366.244,234.765 353.772,246.975 365.981,259.447 378.454,247.237 390.664,259.709 440.55,210.869 428.34,198.397 
					"/>
		
			<rect x="344.071" y="180.42" transform="matrix(0.6996 0.7146 -0.7146 0.6996 255.2543 -211.3582)" fill="#B3D7FF" width="69.813" height="34.908"/>
	</g>
	<g>
		<polygon fill="#54A0FF" points="216.318,405.965 204.109,393.493 191.636,405.704 185.531,399.468 198.004,387.258 
			185.794,374.785 173.321,386.995 167.216,380.76 179.689,368.549 167.48,356.078 155.007,368.288 142.796,355.815 92.909,404.655 
			105.12,417.128 92.648,429.338 104.857,441.808 117.329,429.599 123.434,435.836 110.962,448.045 123.172,460.517 
			135.644,448.306 141.749,454.543 129.276,466.754 141.486,479.224 153.958,467.015 166.167,479.488 216.056,430.648 
			203.845,418.175 		"/>
		
			<rect x="119.576" y="400.198" transform="matrix(0.6996 0.7146 -0.7146 0.6996 344.8562 15.0902)" fill="#B3D7FF" width="69.813" height="34.907"/>
	</g>
	<g>
		<polygon fill="#54A0FF" points="328.566,296.075 316.357,283.604 303.884,295.814 297.779,289.578 310.251,277.368 
			298.042,264.897 285.57,277.106 279.465,270.87 291.937,258.66 279.728,246.189 267.255,258.399 255.045,245.927 205.157,294.765 
			217.368,307.238 204.896,319.448 217.104,331.92 229.577,319.709 235.682,325.946 223.209,338.156 235.419,350.628 
			247.892,338.418 253.997,344.654 241.524,356.864 253.733,369.335 266.206,357.125 278.416,369.597 328.304,320.758 
			316.093,308.286 		"/>
		
			<rect x="231.824" y="290.309" transform="matrix(0.6996 0.7146 -0.7146 0.6996 300.0562 -98.1342)" fill="#B3D7FF" width="69.813" height="34.908"/>
	</g>
</g>
</svg>
