<?xml version="1.0" encoding="utf-8"?>
<!-- Generator: Adobe Illustrator 16.0.0, SVG Export Plug-In . SVG Version: 6.00 Build 0)  -->
<!DOCTYPE svg PUBLIC "-//W3C//DTD SVG 1.1//EN" "http://www.w3.org/Graphics/SVG/1.1/DTD/svg11.dtd">
<svg version="1.1" id="Capa_1" xmlns="http://www.w3.org/2000/svg" xmlns:xlink="http://www.w3.org/1999/xlink" x="0px" y="0px"
	 width="595.275px" height="595.276px" viewBox="-27.351 13.879 595.275 595.276"
	 enable-background="new -27.351 13.879 595.275 595.276" xml:space="preserve">
<g>
	<g>
		<path fill="#54A0FF" d="M427.973,266.523h-13.688v-87.355c0-26.271-21.379-47.645-47.646-47.645h-1.146l-6.162-10.738
			c-5.773-10.07-8.831-21.311-8.831-32.516c-0.01-25.777-23.466-46.746-52.305-46.746h-91.82c-28.842,0-52.316,20.969-52.316,46.736
			c0,11.205-3.059,22.447-8.828,32.516l-6.165,10.748h-1.142c-26.263,0-47.638,21.375-47.638,47.645v264.711
			c0,26.268,21.375,47.641,47.638,47.641h1.142l6.165,10.737c5.779,10.074,8.828,21.311,8.828,32.519
			c0,25.765,23.464,46.736,52.316,46.736h91.81c28.842,0,52.314-20.972,52.314-46.736c0-11.208,3.063-22.444,8.831-32.519
			l6.154-10.737h1.144c26.277,0,47.656-21.373,47.656-47.641v-87.36h13.688c12.304,0,22.314-10.003,22.314-22.309v-45.387
			C450.288,276.527,440.277,266.523,427.973,266.523z M396.285,443.879c0,16.342-13.312,29.643-29.646,29.643H137.925
			c-16.345,0-29.637-13.301-29.637-29.643V179.168c0-16.344,13.292-29.646,29.637-29.646h228.705
			c16.344,0,29.655,13.302,29.655,29.646v87.355v89.996V443.879z M432.288,334.21c0,2.378-1.938,4.311-4.314,4.311h-13.688v-54.001
			h13.688c2.376,0,4.314,1.936,4.314,4.314V334.21z"/>
		<path fill="#B3DBFF" d="M160.847,129.749c7.335-12.797,11.223-27.145,11.223-41.48c0-15.849,15.39-28.737,34.315-28.737h91.8
			c18.923,0,34.312,12.897,34.312,28.737c0,14.345,3.894,28.692,11.23,41.48l1.01,1.774H159.821L160.847,129.749z"/>
		<path fill="#B3DBFF" d="M343.728,493.293c-7.337,12.797-11.23,27.145-11.23,41.482c0,15.847-15.389,28.733-34.312,28.733h-91.81
			c-18.925,0-34.315-12.895-34.315-28.733c0-14.349-3.888-28.695-11.223-41.482l-1.016-1.773h184.926L343.728,493.293z"/>
		<g>
			<path fill="#54A0FF" d="M144.287,230.521c2.304,0,4.608-0.882,6.363-2.636l35.997-36.001c3.521-3.518,3.521-9.206,0-12.723
				c-3.515-3.521-9.205-3.521-12.723,0l-35.999,35.999c-3.52,3.518-3.52,9.207,0,12.726
				C139.678,229.639,141.983,230.521,144.287,230.521z"/>
			<path fill="#54A0FF" d="M144.287,275.521c2.304,0,4.608-0.88,6.363-2.637l18-18.001c3.519-3.518,3.519-9.205,0-12.724
				c-3.519-3.521-9.206-3.521-12.726,0l-17.999,17.997c-3.52,3.521-3.52,9.21,0,12.728
				C139.678,274.641,141.983,275.521,144.287,275.521z"/>
			<path fill="#54A0FF" d="M173.897,224.13c-1.637,1.703-2.609,3.953-2.609,6.391c0,2.431,0.98,4.681,2.609,6.301
				c1.701,1.709,3.951,2.699,6.39,2.699c2.428,0,4.681-0.989,6.388-2.61c1.611-1.708,2.61-4.049,2.61-6.389
				c0-2.339-0.99-4.688-2.61-6.391C183.258,220.802,177.227,220.802,173.897,224.13z"/>
			<path fill="#54A0FF" d="M191.915,218.885c1.766,1.755,4.058,2.635,6.372,2.635s4.606-0.88,6.362-2.635l27.001-27.001
				c3.517-3.518,3.517-9.206,0-12.723c-3.518-3.521-9.207-3.521-12.728,0l-26.998,26.998
				C188.403,209.677,188.403,215.367,191.915,218.885z"/>
			<path fill="#54A0FF" d="M218.914,224.16l-80.999,80.999c-3.519,3.52-3.519,9.206,0,12.723c1.763,1.757,4.067,2.64,6.372,2.64
				c2.304,0,4.608-0.883,6.363-2.64l81-80.997c3.517-3.521,3.517-9.208,0-12.725C228.132,220.64,222.443,220.64,218.914,224.16z"/>
			<path fill="#54A0FF" d="M236.979,206.133c-1.723,1.619-2.694,3.95-2.694,6.389c0,2.428,0.981,4.68,2.61,6.389
				c1.703,1.619,4.052,2.609,6.391,2.609c2.342,0,4.68-0.99,6.388-2.609c1.611-1.709,2.611-4.049,2.611-6.389
				c0-2.341-0.989-4.69-2.611-6.389C246.259,202.801,240.225,202.801,236.979,206.133z"/>
			<path fill="#54A0FF" d="M263.913,179.16l-8.998,8.998c-3.52,3.521-3.52,9.209,0,12.727c1.763,1.755,4.056,2.638,6.373,2.638
				c2.313,0,4.604-0.883,6.361-2.638l9.001-9.001c3.518-3.518,3.518-9.206,0-12.723C273.13,175.639,267.442,175.639,263.913,179.16z
				"/>
		</g>
	</g>
</g>
</svg>
